<?xml version="1.0" encoding="utf-8"?>
<!-- Generator: Adobe Illustrator 23.0.2, SVG Export Plug-In . SVG Version: 6.00 Build 0)  -->
<svg version="1.1" id="Слой_1" xmlns="http://www.w3.org/2000/svg" xmlns:xlink="http://www.w3.org/1999/xlink" x="0px" y="0px"
	 viewBox="0 0 595.28 841.89" style="enable-background:new 0 0 595.28 841.89;" xml:space="preserve">
<style type="text/css">
	.st0{fill:#FDFBFB;}
</style>
<g>
	<path class="st0" d="M202.57,373.09c-11.35-12.29-16.71-29.88-14.15-46.41c2.57-16.53,13-31.67,27.55-39.94
		c3.63-2.07,7.63-3.75,11.81-3.81c3.45-0.05,6.83,1.02,10.03,2.3c12.79,5.11,24.07,13.91,32.15,25.06c2.05,2.83,4.1,5.98,7.35,7.28
		c3.72,1.49,7.93,0.14,11.63-1.4c10.61-4.4,20.58-10.31,29.53-17.51c3.05-2.45,6.48-5.21,10.36-4.75c2.22,0.26,4.16,1.56,5.94,2.91
		c13.37,10.15,22.65,25.55,25.36,42.12c1.08,6.58,1.05,13.74-2.42,19.44c-7.62,12.53-26.73,11.62-37.58,21.49
		c-15.61,14.2-7.27,43.07-22.24,57.94c-6.65,6.61-16.52,8.79-25.88,9.3c-10.24,0.56-20.9-0.63-29.81-5.72
		c-23.19-13.25-25.32-45.17-37.52-68.93"/>
	<g>
		<path d="M204.34,371.32c-12.87-14.36-17.5-34.93-11.19-53.27c5.66-16.44,23.94-38.03,43.19-30.72
			c9.25,3.51,17.72,9.25,24.67,16.26c5.23,5.27,9.42,15.17,17.26,16.87c7.95,1.72,17.69-4.43,24.33-8.11
			c4.01-2.23,7.91-4.68,11.64-7.35c3.63-2.6,7.96-7.61,12.42-8.45c4.99-0.94,10.27,5.1,13.41,8.3c3.52,3.6,6.62,7.59,9.21,11.91
			c4.88,8.12,8.4,17.68,8.9,27.22c0.55,10.45-4.14,17.45-13.41,21.65c-6.64,3.01-13.85,4.63-20.26,8.16
			c-13.37,7.36-16.12,21.58-18.37,35.46c-1.17,7.26-2.28,14.93-5.96,21.41c-4.72,8.33-13.43,12.11-22.58,13.44
			c-11.29,1.64-24.08,0.89-34.16-4.85c-7.56-4.31-13-11.14-17.05-18.73c-8.35-15.66-11.59-33.46-19.57-49.3
			c-1.45-2.87-5.76-0.35-4.32,2.52c7.98,15.84,11.22,33.63,19.57,49.3c9.11,17.09,24.49,26.3,43.91,26.69
			c9.53,0.19,19.96-0.92,28.28-5.97c6.96-4.22,11.21-10.98,13.61-18.6c4.95-15.7,2.18-37.36,18.59-46.76
			c13.74-7.86,33.73-8.43,36.43-27.74c2.68-19.15-8.75-40.27-22.73-52.6c-3.04-2.68-6.55-5.87-10.69-6.54
			c-4.22-0.68-7.92,1.62-11.13,4.08c-9.12,6.98-18.49,13.25-29.1,17.76c-3.26,1.39-6.79,2.96-10.34,1.89
			c-3.28-0.99-4.84-3.57-6.8-6.21c-3.14-4.22-6.55-8.18-10.45-11.72c-7.17-6.51-15.65-11.87-24.81-15.11
			c-21.01-7.44-40.89,14.7-47.78,32.45c-7.96,20.5-2.81,44,11.72,60.21C202.96,377.26,206.48,373.71,204.34,371.32L204.34,371.32z"
			/>
	</g>
</g>
</svg>
