<?xml version="1.0" encoding="utf-8"?>
<!-- Generator: Adobe Illustrator 23.0.2, SVG Export Plug-In . SVG Version: 6.00 Build 0)  -->
<svg version="1.1" id="Слой_1" xmlns="http://www.w3.org/2000/svg" xmlns:xlink="http://www.w3.org/1999/xlink" x="0px" y="0px"
	 viewBox="0 0 500 600" style="enable-background:new 0 0 500 600;" xml:space="preserve">
<style type="text/css">
	.st0{fill:#FFFFFF;stroke:#000000;stroke-miterlimit:10;}
</style>
<path class="st0" d="M11.2,600h239.7c0,0,248.6,1.5,248.6,1.5c3-40.5-30.9-113.4-34-154c-5-66,33-183.9,34.4-204.2
	c0,0.1,0-242.2,0-242.2c0.1-0.1,0-0.5,0-0.6c0,0-249.7,0-249.7,0c0,0-249.8-0.1-249.7,0c0,0,0,244.1,0,244.1
	c1.4,20.2,36,135.9,26,199.9c-6.3,40.3-29,115.5-26,156c0,0,249.7-0.5,249.7-0.5h239.7"/>
</svg>
