<?xml version="1.0" encoding="utf-8"?>
<!-- Generator: Adobe Illustrator 23.0.2, SVG Export Plug-In . SVG Version: 6.00 Build 0)  -->
<svg version="1.1" id="Слой_1" xmlns="http://www.w3.org/2000/svg" xmlns:xlink="http://www.w3.org/1999/xlink" x="0px" y="0px"
	 viewBox="0 0 250 200" style="enable-background:new 0 0 250 200;" xml:space="preserve">
<style type="text/css">
	.st0{fill:#FFFFFF;stroke:#000000;stroke-miterlimit:10;}
</style>
<path class="st0" d="M96,0H0.1v5.3c0,3.5,0.6,1,1.7,3.5c0.4,0.8,0.9,1.6,0.9,2.5c-0.1,1.2-0.9,1.9-1.6,2.8c-1.1,1.4,0.1,3.3,0.2,5.4
	c0.4,3.7,1.3,7.1,0.5,10.6c-0.5,2.3-1.3,2.9-1.7,5.3c-0.5,3,0.5,6.1,2.4,7.7c-1.2,0-1.6,2.3-1.3,3.9s0.9,3.4,0.2,4.8
	c-0.2,0.3-0.4,0.6-0.5,1s0.2,0.8,0.4,0.6h98.2c0.8-2.7,1.3-5.8,0.7-8.6c-0.5-2.3-2-4.4-1.5-6.7c0.3-2,2-3.2,2.2-5.2
	c0.3-2.6-1.7-4.6-2-7.2c-0.3-2.9,1.7-5.8,1-8.6c-0.3-1.5-1.3-2.5-1.9-3.8c-1.6-3.7,0.5-8.5-0.5-12.5C97.3,0.6,96.5,0,96,0z"/>
</svg>
