<?xml version="1.0" encoding="utf-8"?>
<!-- Generator: Adobe Illustrator 23.0.2, SVG Export Plug-In . SVG Version: 6.00 Build 0)  -->
<svg version="1.1" id="Слой_1" xmlns="http://www.w3.org/2000/svg" xmlns:xlink="http://www.w3.org/1999/xlink" x="0px" y="0px"
	 viewBox="0 0 250 200" style="enable-background:new 0 0 250 200;" xml:space="preserve">
<style type="text/css">
	.st0{fill:#FFFFFF;stroke:#000000;stroke-miterlimit:10;}
</style>
<path class="st0" d="M152.3,0.8c-1,4,1.1,8.8-0.5,12.5c-0.5,1.3-1.6,2.3-1.9,3.8c-0.7,2.8,1.3,5.7,1,8.6c-0.3,2.6-2.3,4.6-2,7.2
	c0.2,2,1.9,3.2,2.2,5.2c0.5,2.3-1,4.4-1.5,6.7c-0.6,2.8-0.1,5.9,0.7,8.6h98.2c0.2,0.2,0.5-0.2,0.4-0.6c-0.1-0.4-0.3-0.7-0.5-1
	c-0.7-1.4-0.1-3.2,0.2-4.8s-0.1-3.9-1.3-3.9c2-1.6,2.9-4.7,2.4-7.7c-0.4-2.4-1.2-3-1.7-5.3c-0.9-3.5,0.1-6.9,0.5-10.6
	c0.2-2.1,1.3-4,0.2-5.4c-0.6-0.9-1.5-1.6-1.6-2.8c0-0.9,0.5-1.7,0.9-2.5c1.1-2.5,1.7,0,1.7-3.5V0L154,0C153.5,0,152.7,0.6,152.3,0.8
	z"/>
</svg>
