<?xml version="1.0" encoding="utf-8"?>
<!-- Generator: Adobe Illustrator 23.0.2, SVG Export Plug-In . SVG Version: 6.00 Build 0)  -->
<svg version="1.1" id="Слой_1" xmlns="http://www.w3.org/2000/svg" xmlns:xlink="http://www.w3.org/1999/xlink" x="0px" y="0px"
	 viewBox="0 0 500 200" style="enable-background:new 0 0 500 200;" xml:space="preserve">
<style type="text/css">
	.st0{fill:#FFFFFF;stroke:#000000;stroke-miterlimit:10;}
</style>
<path class="st0" d="M245.6,0.1l250.2,0c2.2-0.4,3.3,3.8,2.6,6.1s-2.1,4.8-1.2,7.1c0.8,2.2,3.5,4,2.5,6.1c-0.5,0.9-1.5,1.2-2.2,2
	c-3,3.5,4.8,9.6,1.8,13.2c-1.3-0.8-2.7,1.3-2.4,2.9c0.3,1.6,1.4,2.9,2.1,4.4c1.2,2.7,1,7.2-1.2,9.1H246.6h6.9H2.2
	C0,49.1-0.2,44.7,1,41.9c0.6-1.5,1.8-2.8,2.1-4.4c0.3-1.6-1.1-3.7-2.4-2.9c-3-3.5,4.8-9.7,1.8-13.2c-0.7-0.8-1.7-1.1-2.2-2
	c-1-2,1.7-3.9,2.5-6.1c0.8-2.3-0.6-4.8-1.2-7.1S2-0.3,4.2,0.1h250.2"/>
</svg>
