<?xml version="1.0" encoding="utf-8"?>
<!-- Generator: Adobe Illustrator 23.0.2, SVG Export Plug-In . SVG Version: 6.00 Build 0)  -->
<svg version="1.1" id="Слой_1" xmlns="http://www.w3.org/2000/svg" xmlns:xlink="http://www.w3.org/1999/xlink" x="0px" y="0px"
	 viewBox="0 0 500 200" style="enable-background:new 0 0 500 200;" xml:space="preserve">
<style type="text/css">
	.st0{fill:#A5A5F9;stroke:#000000;stroke-miterlimit:10;}
	.st1{fill:none;stroke:#000000;stroke-miterlimit:10;}
	.st2{fill:#FDFDFF;}
</style>
<g>
	<line class="st0" x1="438" y1="199.3" x2="499.6" y2="199.3"/>
	<g>
		<path class="st1" d="M500.2,119.3c-38.6-1.2-48.3-2.4-80-4.8c-9.7-0.7-32.5-4.5-41.9-6.5c-4.5-0.9-9-2.2-13.4-3.3
			c-4.5-1.1-9.1-2-13.7-2.9c-9.4-1.8-22-2.9-30.2-0.5"/>
		<g>
			<path class="st2" d="M247.5,199.5c-12.1-1-18.4-3.9-22.7-10.1c-3.2-4.6-5.5-11.5-3.8-15.6c0.8-1.9,2.4-3.2,4.7-3.6
				c5.2-1.1,5.9-6.4,6.7-11.6c0.5-3.4,1-7,2.7-9.6c3-4.5,7.3-6.1,12.2-8c2.1-0.8,4.4-1.6,6.7-2.8c2-1,4-3,6.5-5.4
				c3.5-3.4,7.8-7.6,13.7-10.6c4.5-2.3,8.8-3.1,13-3.9c5.2-1,10.1-1.9,15.3-5.4c1.9-1.3,3.9-2.8,5.7-4.2c5.5-4.2,10.6-8.1,16.1-8.1
				c2,0,3.8,0.5,5.7,1.5c3.8,2.1,6.4,5.3,9,8.5c0.8,0.9,1.5,1.8,2.3,2.7c13.8,15.8,35.3,36,59.7,41.9c24,5.8,93.9,27.8,98.3,44
				H247.5z"/>
			<path d="M324.3,101.3c1.9,0,3.7,0.5,5.5,1.5c3.7,2,6.2,5.1,8.9,8.4c0.7,0.9,1.5,1.8,2.3,2.7c13.8,15.9,35.5,36.1,59.9,42.1
				c27,6.6,92,27.9,97.7,43h-251c-11.9-1-18.2-3.8-22.3-9.9c-3.1-4.5-5.4-11.2-3.7-15.2c0.7-1.8,2.1-2.9,4.3-3.3
				c5.5-1.2,6.3-6.7,7.1-12c0.5-3.4,1-6.9,2.6-9.4c2.9-4.4,7.1-5.9,12-7.8c2.2-0.8,4.4-1.6,6.7-2.8c2-1,4.1-3.1,6.6-5.4
				c3.4-3.4,7.7-7.6,13.6-10.5c4.4-2.2,8.7-3,12.8-3.8c5-1,10.2-1.9,15.5-5.5c1.9-1.3,3.9-2.8,5.7-4.2
				C313.8,105.2,318.9,101.3,324.3,101.3 M324.3,100.3c-7.6,0-14.6,7.4-22.1,12.4c-9.4,6.3-18.1,4.2-28.2,9.2
				c-10.1,5-15.5,13.7-20.1,15.9c-7.8,3.8-14.8,4.3-19.1,10.9c-4.4,6.7-1,19.3-9.1,21c-8.9,1.9-5.7,13.4-1.2,20
				c4.5,6.6,11.3,9.3,23.1,10.3h252.3c-2.9-16.5-74.1-39-98.8-45c-23.3-5.7-44.6-24.7-59.4-41.7c-3.5-4-6.5-8.6-11.4-11.3
				C328.2,100.8,326.2,100.3,324.3,100.3L324.3,100.3z"/>
		</g>
	</g>
</g>
</svg>
