<?xml version="1.0" encoding="utf-8"?>
<!-- Generator: Adobe Illustrator 23.0.2, SVG Export Plug-In . SVG Version: 6.00 Build 0)  -->
<svg version="1.1" id="Слой_1" xmlns="http://www.w3.org/2000/svg" xmlns:xlink="http://www.w3.org/1999/xlink" x="0px" y="0px"
	 viewBox="0 0 500 200" style="enable-background:new 0 0 500 200;" xml:space="preserve">
<style type="text/css">
	.st0{fill:#A5A5F9;stroke:#000000;stroke-miterlimit:10;}
	.st1{fill:none;stroke:#000000;stroke-miterlimit:10;}
	.st2{fill:#FDFDFF;}
</style>
<g>
	<line class="st0" x1="62.2" y1="199.3" x2="0.7" y2="199.3"/>
	<g>
		<path class="st1" d="M0,119.3c38.6-1.2,48.3-2.4,80-4.8c9.7-0.7,32.5-4.5,41.9-6.5c4.5-0.9,9-2.2,13.4-3.3c4.5-1.1,9.1-2,13.7-2.9
			c9.4-1.8,22-2.9,30.2-0.5"/>
		<g>
			<path class="st2" d="M1,199.5c4.4-16.2,74.3-38.2,98.3-44c24.3-5.9,45.9-26,59.7-41.9c0.8-0.9,1.5-1.8,2.3-2.7
				c2.6-3.2,5.2-6.4,9-8.5c1.9-1,3.8-1.5,5.7-1.5c5.5,0,10.6,3.9,16.1,8.1c1.9,1.4,3.8,2.9,5.7,4.2c5.2,3.5,10.1,4.4,15.3,5.4
				c4.2,0.8,8.4,1.6,13,3.9c5.9,2.9,10.2,7.2,13.7,10.6c2.4,2.4,4.5,4.4,6.5,5.4c2.3,1.1,4.5,2,6.7,2.8c5,1.9,9.3,3.5,12.2,8
				c1.7,2.6,2.2,6.1,2.7,9.6c0.7,5.2,1.5,10.5,6.7,11.6c2.3,0.5,3.9,1.7,4.7,3.6c1.7,4.1-0.6,11-3.8,15.6
				c-4.2,6.2-10.6,9.1-22.7,10.1H1z"/>
			<path d="M176,101.3L176,101.3c5.3,0,10.4,3.9,15.8,8c1.9,1.4,3.8,2.9,5.7,4.2c5.3,3.5,10.5,4.5,15.5,5.5
				c4.1,0.8,8.4,1.6,12.8,3.8c5.8,2.9,10.1,7.1,13.6,10.5c2.4,2.4,4.6,4.5,6.6,5.4c2.3,1.1,4.6,2,6.7,2.8c4.9,1.8,9.1,3.4,12,7.8
				c1.6,2.5,2.1,6,2.6,9.4c0.8,5.3,1.6,10.9,7.1,12c2.2,0.5,3.6,1.6,4.3,3.3c1.6,4-0.7,10.6-3.7,15.2c-4.1,6.1-10.4,8.9-22.3,9.9
				H1.7c5.8-15.1,70.7-36.5,97.7-43c24.5-5.9,46.1-26.2,59.9-42.1c0.8-0.9,1.5-1.8,2.3-2.7c2.7-3.3,5.2-6.3,8.9-8.4
				C172.3,101.8,174.1,101.3,176,101.3 M176,100.3c-1.9,0-3.9,0.5-6,1.6c-5,2.7-7.9,7.3-11.4,11.3c-14.8,17-36.1,36.1-59.4,41.7
				c-24.7,6-95.9,28.5-98.8,45h252.3c11.8-1,18.6-3.7,23.1-10.3c4.5-6.6,7.7-18.2-1.2-20c-8.1-1.7-4.7-14.3-9.1-21
				c-4.3-6.6-11.3-7.1-19.1-10.9c-4.6-2.2-10.1-10.9-20.1-15.9c-10.1-5-18.8-2.9-28.2-9.2C190.6,107.7,183.6,100.3,176,100.3
				L176,100.3z"/>
		</g>
	</g>
</g>
</svg>
